<?xml version="1.0" standalone="no"?>
<!DOCTYPE svg PUBLIC "-//W3C//DTD SVG 20010904//EN"
 "http://www.w3.org/TR/2001/REC-SVG-20010904/DTD/svg10.dtd">
<svg version="1.0" xmlns="http://www.w3.org/2000/svg"
 width="128.000000pt" height="128.000000pt" viewBox="0 0 128.000000 128.000000"
 preserveAspectRatio="xMidYMid meet">
<metadata>
Created by potrace 1.14, written by Peter Selinger 2001-2017
</metadata>
<g transform="translate(0.000000,128.000000) scale(0.100000,-0.100000)"
fill="#000000" stroke="none">
<path d="M613 1124 c-21 -9 -15 -23 18 -43 l30 -19 -68 2 c-127 4 -313 -50
-313 -90 0 -15 6 -17 63 -14 20 1 37 -1 37 -3 0 -3 -31 -36 -68 -73 -41 -41
-79 -91 -94 -123 -36 -77 -21 -105 31 -58 18 16 21 17 11 3 -8 -11 -14 -22
-13 -25 1 -3 -2 -23 -8 -44 -25 -92 -5 -229 44 -302 48 -73 164 -152 257 -175
190 -48 350 0 461 136 15 19 61 109 66 129 1 6 8 36 16 68 12 47 15 110 8 150
0 4 -7 7 -14 7 -7 0 -21 -26 -31 -57 -65 -208 -181 -316 -341 -317 -109 0
-183 37 -230 119 -59 100 -37 215 56 299 54 49 101 64 174 59 84 -7 144 -42
199 -118 20 -28 44 -12 75 48 32 65 32 146 -1 218 -36 79 -115 160 -186 192
-57 26 -153 42 -179 31z m255 -320 c-4 -3 -12 5 -18 18 -12 22 -12 22 6 6 10
-10 15 -20 12 -24z"/>
<path d="M625 625 c-82 -85 -77 -184 13 -222 49 -20 112 -10 146 24 48 48 46
104 -5 155 -16 17 -36 43 -45 59 -22 43 -55 39 -109 -16z"/>
</g>
</svg>
