<svg width="10" height="6" viewBox="0 0 10 6" fill="none" xmlns="http://www.w3.org/2000/svg">
<path d="M0.220115 0.220115C0.361098 0.0791757 0.552285 0 0.751634 0C0.950983 0 1.14217 0.0791757 1.28315 0.220115L5.00454 3.9415L8.72592 0.220115C8.86771 0.08317 9.05762 0.00739294 9.25474 0.00910585C9.45186 0.0108188 9.64042 0.0898844 9.7798 0.229273C9.91919 0.368662 9.99826 0.557222 9.99997 0.75434C10.0017 0.951458 9.92591 1.14136 9.78896 1.28315L5.53606 5.53606C5.39508 5.677 5.20389 5.75617 5.00454 5.75617C4.80519 5.75617 4.614 5.677 4.47302 5.53606L0.220115 1.28315C0.0791756 1.14217 0 0.950983 0 0.751634C0 0.552285 0.0791756 0.361098 0.220115 0.220115Z" fill="#CFA75C"/>
</svg>
