<svg width="26" height="23" viewBox="0 0 26 23" fill="none" xmlns="http://www.w3.org/2000/svg">
<path d="M25.74 0H0.26C0.117 0 0 0.117197 0 0.260438V2.34394C0 2.48718 0.117 2.60438 0.26 2.60438H25.74C25.883 2.60438 26 2.48718 26 2.34394V0.260438C26 0.117197 25.883 0 25.74 0ZM25.74 20.3141H0.26C0.117 20.3141 0 20.4313 0 20.5746V22.6581C0 22.8013 0.117 22.9185 0.26 22.9185H25.74C25.883 22.9185 26 22.8013 26 22.6581V20.5746C26 20.4313 25.883 20.3141 25.74 20.3141ZM25.74 10.1571H0.26C0.117 10.1571 0 10.2743 0 10.4175V12.501C0 12.6443 0.117 12.7614 0.26 12.7614H25.74C25.883 12.7614 26 12.6443 26 12.501V10.4175C26 10.2743 25.883 10.1571 25.74 10.1571Z" fill="white"/>
</svg>
