<svg width="80" height="46" viewBox="0 0 80 46" fill="none" xmlns="http://www.w3.org/2000/svg">
<path d="M1.76092 1.75904C2.88878 0.632726 4.41828 0 6.01308 0C7.60787 0 9.13737 0.632726 10.2652 1.75904L40.0363 31.4982L69.8074 1.75904C70.9417 0.664646 72.461 0.0590801 74.0379 0.0727686C75.6148 0.0864572 77.1233 0.718304 78.2384 1.83222C79.3535 2.94613 79.9861 4.45299 79.9998 6.02825C80.0135 7.6035 79.4073 9.12111 78.3117 10.2542L44.2885 44.241C43.1606 45.3673 41.6311 46 40.0363 46C38.4415 46 36.912 45.3673 35.7842 44.241L1.76092 10.2542C0.633405 9.12757 0 7.59971 0 6.00663C0 4.41354 0.633405 2.88568 1.76092 1.75904V1.75904Z" fill="#C47191"/>
</svg>
