<svg width="95" height="95" viewBox="0 0 95 95" fill="none" xmlns="http://www.w3.org/2000/svg">
<path d="M47.5889 52.576L89.0089 93.9583C89.6842 94.587 90.5774 94.9293 91.5003 94.913C92.4233 94.8967 93.3039 94.5232 93.9566 93.8711C94.6093 93.219 94.9832 92.3392 94.9994 91.4171C95.0157 90.495 94.6732 89.6026 94.0439 88.9279L6.16886 1.13283C5.84272 0.783139 5.44942 0.502659 5.01242 0.308124C4.57542 0.11359 4.10368 0.00898597 3.62535 0.000553924C3.14701 -0.00787812 2.67187 0.0800333 2.22828 0.259045C1.78468 0.438057 1.38172 0.704501 1.04343 1.04248C0.705143 1.38046 0.438456 1.78306 0.259281 2.22625C0.0801062 2.66944 -0.0078853 3.14414 0.000554429 3.62205C0.00899415 4.09995 0.113693 4.57126 0.308405 5.00786C0.503117 5.44446 0.783852 5.8374 1.13386 6.16325L40.4639 45.4575V61.1989C37.1722 58.5659 33.0974 57.1016 28.8813 57.0368C24.6651 56.9719 20.5471 58.3102 17.176 60.8408C13.8048 63.3713 11.3719 66.9504 10.2606 71.0143C9.14929 75.0781 9.42263 79.3959 11.0376 83.2875C12.6525 87.1791 15.5173 90.4234 19.1808 92.5095C22.8442 94.5955 27.0981 95.4047 31.2725 94.8097C35.4469 94.2146 39.3046 92.2491 42.2379 89.2227C45.1713 86.1964 47.0137 82.2811 47.4749 78.0935C47.5501 77.8037 47.5884 77.5055 47.5889 77.2061V52.576V52.576ZM80.7771 44.9449L47.6981 32.554L40.4639 25.3263V3.64804C40.4642 3.07323 40.6038 2.50704 40.8708 1.99789C41.1378 1.48873 41.5243 1.05177 41.9972 0.724364C42.4701 0.396957 43.0153 0.188847 43.5862 0.117831C44.1572 0.0468159 44.7368 0.115009 45.2756 0.316576L75.5711 11.6635C78.5144 12.7661 81.0507 14.74 82.8408 17.3215C84.631 19.9029 85.5897 22.9688 85.5889 26.1093V41.6135C85.5886 42.1883 85.449 42.7545 85.1819 43.2636C84.9149 43.7728 84.5284 44.2097 84.0555 44.5371C83.5826 44.8646 83.0374 45.0727 82.4665 45.1437C81.8956 45.2147 81.3159 45.1465 80.7771 44.9449Z" fill="white"/>
</svg>
