<svg width="66" height="82" viewBox="0 0 66 82" fill="none" xmlns="http://www.w3.org/2000/svg">
<path d="M30.9911 0.195271C30.5232 0.0211207 30.0198 -0.0377967 29.524 0.0235593C29.0282 0.0849153 28.5548 0.264719 28.1441 0.547592C27.7334 0.830466 27.3978 1.20799 27.1659 1.64789C26.934 2.08779 26.8128 2.57697 26.8125 3.0736V52.7965C23.954 50.5216 20.4154 49.2565 16.754 49.2005C13.0925 49.1445 9.51642 50.3007 6.58881 52.487C3.6612 54.6734 1.54847 57.7656 0.583376 61.2768C-0.381722 64.7879 -0.144349 68.5184 1.25811 71.8806C2.66057 75.2429 5.14843 78.0459 8.32984 79.8482C11.5112 81.6505 15.2054 82.3497 18.8306 81.8356C22.4557 81.3214 25.8058 79.6233 28.3532 77.0085C30.9005 74.3938 32.5005 71.0111 32.901 67.3931C32.9664 67.1427 32.9996 66.8851 33 66.6264V28.0109L61.8214 38.7534C62.2893 38.9275 62.7927 38.9864 63.2885 38.9251C63.7843 38.8637 64.2578 38.6839 64.6684 38.401C65.0791 38.1182 65.4147 37.7406 65.6466 37.3007C65.8785 36.8608 65.9998 36.3717 66 35.875V22.4797C66.0007 19.7664 65.1681 17.1175 63.6135 14.8872C62.0589 12.6569 59.8564 10.9514 57.3004 9.9988L30.9911 0.195271V0.195271Z" fill="white"/>
</svg>
